<?xml version="1.0" encoding="UTF-8"?>
<svg version="1.1" xmlns="http://www.w3.org/2000/svg" width="159" height="159">
<path d="M0 0 C16.27154508 14.73948401 25.4950367 34.51318321 26.6953125 56.42578125 C27.37486448 78.0992579 21.09860288 99.16623627 6.84375 115.8046875 C-7.1804635 130.50783418 -25.72435098 139.79506702 -46.20703125 140.61328125 C-48.43997914 140.63694685 -50.67327202 140.63781994 -52.90625 140.6171875 C-54.08614502 140.60816406 -55.26604004 140.59914062 -56.48168945 140.58984375 C-76.24144079 140.19928659 -93.9000048 133.58498862 -108.59375 120.1796875 C-109.50640625 119.40431641 -109.50640625 119.40431641 -110.4375 118.61328125 C-123.52904615 106.74162917 -131.63519526 87.75326978 -132.77832031 70.37353516 C-133.81042397 46.95072232 -129.8555168 25.06088336 -113.59375 7.1796875 C-112.88992187 6.37273438 -112.18609375 5.56578125 -111.4609375 4.734375 C-83.00098312 -25.97983319 -31.42091146 -26.34981499 0 0 Z M-105.6875 19.58203125 C-117.09640809 34.61877195 -120.18319378 53.43405563 -118.19921875 71.83984375 C-115.37804983 89.14908014 -106.31832116 104.73150568 -92.29296875 115.36328125 C-76.25737085 126.15424076 -57.5871554 129.48703133 -38.6640625 125.9296875 C-21.66628674 121.77755907 -7.72082697 112.43999592 2.21875 97.9921875 C11.52038151 82.577427 14.17199909 62.57040803 10.72265625 44.9765625 C5.66704552 26.26450952 -4.57859296 12.85794699 -20.953125 2.71875 C-49.93268557 -13.32697984 -84.58855954 -4.6266411 -105.6875 19.58203125 Z " fill="#003680" transform="translate(132.59375,18.8203125)"/>
<path d="M0 0 C4.06321081 -0.10795246 8.12355279 -0.1873055 12.1875 -0.25 C13.33798828 -0.28351562 14.48847656 -0.31703125 15.67382812 -0.3515625 C16.78564453 -0.36445313 17.89746094 -0.37734375 19.04296875 -0.390625 C20.06414795 -0.41157227 21.08532715 -0.43251953 22.13745117 -0.45410156 C25.95962015 0.15222972 27.36082237 1.1561682 30 4 C30.72841648 7.02507908 30.6320415 9.98493858 30.56762695 13.08300781 C30.56835709 14.00042755 30.56908722 14.91784729 30.56983948 15.86306763 C30.56635764 18.89368943 30.5274679 21.92277191 30.48828125 24.953125 C30.47895526 27.05490275 30.47183814 29.15669138 30.46684265 31.25848389 C30.44775617 36.78912388 30.39864051 42.31910683 30.34332275 47.8494873 C30.29216623 53.49331778 30.26933626 59.13725448 30.24414062 64.78125 C30.19052367 75.85450173 30.10257367 86.92709342 30 98 C22.08 98 14.16 98 6 98 C5.67 69.62 5.34 41.24 5 12 C3.35 11.67 1.7 11.34 0 11 C0 7.37 0 3.74 0 0 Z " fill="#003780" transform="translate(61,27)"/>
<path d="M0 0 C16 0 16 0 23 3 C24.17727453 6.53182358 24.11994258 9.31336262 24.11352539 13.04174805 C24.11367142 13.75419678 24.11381744 14.46664551 24.1139679 15.20068359 C24.11327151 17.554393 24.10549192 19.90802317 24.09765625 22.26171875 C24.0957911 23.89410865 24.09436765 25.52649911 24.09336853 27.15888977 C24.08955101 31.45461575 24.07972724 35.75030789 24.06866455 40.04602051 C24.05843399 44.42976423 24.05386738 48.81351341 24.04882812 53.19726562 C24.0381043 61.79819433 24.02051368 70.39908906 24 79 C16.08 79 8.16 79 0 79 C0 52.93 0 26.86 0 0 Z " fill="#003780" transform="translate(100,46)"/>
<path d="M0 0 C0 26.07 0 52.14 0 79 C-7.59 79 -15.18 79 -23 79 C-23.06772927 69.27303517 -23.1227891 59.5462265 -23.15543652 49.8190794 C-23.17110424 45.30255574 -23.19236257 40.78620152 -23.22631836 36.26977539 C-23.25887255 31.91259403 -23.27684468 27.55557582 -23.28463173 23.19828224 C-23.29018235 21.53445682 -23.30102118 19.8706405 -23.31719017 18.20688438 C-23.33891251 15.87950596 -23.34196917 13.55280499 -23.34057617 11.2253418 C-23.351362 10.53482224 -23.36214783 9.84430267 -23.3732605 9.13285828 C-23.35524567 6.35817827 -23.3015856 4.44814502 -21.72871399 2.11091614 C-15.48930975 -1.89868574 -6.63130278 0 0 0 Z " fill="#003780" transform="translate(58,46)"/>
</svg>
